<svg xmlns="http://www.w3.org/2000/svg" viewBox="0 0 800 16" fill="none" stroke="#fff" stroke-linecap="square">
  <g opacity="0.5">
    <path d="M0 8 H355" stroke-dasharray="6 6"/>
    <path d="M445 8 H800" stroke-dasharray="6 6"/>
    <path d="M0 3 V13 M800 3 V13"/>
    <path d="M116 8 H124 M120 4 V12 M236 8 H244 M240 4 V12 M556 8 H564 M560 4 V12 M676 8 H684 M680 4 V12"/>
    <path d="M356 8 H364 M360 4 V12 M436 8 H444 M440 4 V12"/>
  </g>
  <g>
    <polygon points="400,1 409,8 400,15 391,8"/>
    <polygon points="400,4 404,8 400,12 396,8" opacity="0.6"/>
    <circle cx="400" cy="8" r="1.6" fill="#fff"/>
  </g>
</svg>
