<?xml version="1.0" encoding="UTF-8" standalone="no"?>
<!-- Created with Inkscape (http://www.inkscape.org/) -->

<svg
   width="512"
   height="512"
   viewBox="0 0 512 512"
   version="1.1"
   id="svg1"
   xml:space="preserve"
   inkscape:version="1.4.3 (0d15f75042, 2025-12-25)"
   sodipodi:docname="rei.svg"
   xmlns:inkscape="http://www.inkscape.org/namespaces/inkscape"
   xmlns:sodipodi="http://sodipodi.sourceforge.net/DTD/sodipodi-0.dtd"
   xmlns="http://www.w3.org/2000/svg"
   xmlns:svg="http://www.w3.org/2000/svg"><sodipodi:namedview
     id="namedview1"
     pagecolor="#505050"
     bordercolor="#ffffff"
     borderopacity="1"
     inkscape:showpageshadow="0"
     inkscape:pageopacity="0"
     inkscape:pagecheckerboard="1"
     inkscape:deskcolor="#505050"
     inkscape:document-units="px"
     inkscape:zoom="1.6614247"
     inkscape:cx="243.16479"
     inkscape:cy="148.36664"
     inkscape:window-width="2560"
     inkscape:window-height="1416"
     inkscape:window-x="0"
     inkscape:window-y="0"
     inkscape:window-maximized="1"
     inkscape:current-layer="layer1" /><defs
     id="defs1" /><g
     inkscape:label="Layer 1"
     inkscape:groupmode="layer"
     id="layer1"><path
       style="fill:#ffffff;stroke-width:0.511531;stroke:none;stroke-opacity:1;fill-opacity:1"
       d="m 223.5221,503.02984 c -3.8563,-3.60546 -9.48924,-8.63128 -12.51765,-11.16849 -11.10705,-9.30551 -19.92127,-17.46845 -28.9144,-26.77794 -5.06416,-5.2423 -14.55294,-14.82581 -21.08617,-21.29668 -13.1414,-13.01595 -15.00853,-15.48301 -16.02573,-21.17485 -0.81947,-4.58555 -0.25455,-6.2029 3.65811,-10.47287 3.33808,-3.64292 10.37988,-9.54044 11.36041,-9.51435 0.33499,0.009 -0.0815,0.51757 -0.92553,1.13036 -2.59438,1.88358 -8.94861,8.18442 -10.8199,10.72897 -0.97567,1.32672 -1.96601,3.08186 -2.20074,3.90032 -0.38459,1.341 0.13207,6.03446 0.73012,6.63251 0.44587,0.44586 16.43811,-8.32317 22.52115,-12.34905 8.72113,-5.77182 21.26189,-17.35792 20.07396,-18.54584 -0.54137,-0.54138 -5.8499,-1.74755 -11.12409,-2.52756 -6.00235,-0.88771 -7.64808,-0.59693 -11.9494,2.11134 -28.2884,17.81132 -32.62989,20.96608 -47.89784,34.80507 -11.47225,10.39856 -19.352032,16.16304 -38.090098,27.86495 -6.199969,3.87188 -11.884565,7.51482 -12.632424,8.09543 -1.428246,1.10886 -2.476732,1.36489 -2.476732,0.60483 0,-0.71232 2.617557,-2.53334 13.299813,-9.25259 20.440629,-12.85737 28.455741,-18.8371 42.201331,-31.4846 7.25119,-6.67191 15.24819,-13.07274 20.72437,-16.58785 2.38737,-1.53243 7.56331,-4.8757 11.50211,-7.4295 3.93878,-2.55379 9.45023,-6.01887 12.24766,-7.70015 l 5.08623,-3.05689 4.12134,0.087 c 4.1455,0.0875 13.27088,1.7372 15.1386,2.73678 0.87109,0.46619 1.19901,0.22875 2.48534,-1.79957 3.26855,-5.15398 6.2346,-17.88955 6.96953,-29.92573 0.36759,-6.02009 -0.36544,-17.873 -1.62707,-26.30909 -0.79137,-5.2917 -0.94312,-5.70796 -2.82514,-7.7497 -1.57716,-1.71104 -2.32923,-2.14922 -3.63331,-2.11691 -0.90445,0.0224 -2.51591,-0.37603 -3.58099,-0.88541 -1.0651,-0.50936 -2.01622,-0.83845 -2.1136,-0.73129 -1.79926,1.98 -4.39014,6.56291 -4.39014,7.76555 0,1.72361 3.732,9.911 6.03394,13.23748 0.84142,1.2159 2.23858,2.9013 3.10482,3.74532 0.86624,0.84403 1.58137,1.71315 1.58919,1.93138 0.0375,1.04606 -3.2489,-1.52497 -7.47272,-5.84617 -5.39675,-5.52116 -6.56663,-6.88002 -10.70339,-12.43234 -2.08165,-2.79396 -3.08595,-3.79359 -3.20263,-3.18773 -0.30842,1.60152 7.44647,23.71988 10.22802,29.17217 0.55312,1.08421 0.89453,2.08243 0.7587,2.21826 -0.4117,0.4117 -7.94189,-7.005 -10.4598,-10.30215 -3.31652,-4.34291 -10.87757,-15.82256 -15.68936,-23.82054 -2.24024,-3.72364 -7.19578,-11.06349 -11.01233,-16.31078 -3.81655,-5.24729 -8.03673,-11.41266 -9.37819,-13.70082 -4.12543,-7.03687 -8.50943,-17.28505 -12.42913,-29.05476 -2.06132,-6.18952 -3.75372,-10.77867 -3.76089,-10.1981 -0.0227,1.8339 1.48187,12.48665 2.51955,17.83949 2.44495,12.61223 8.55734,28.61423 13.93381,36.47819 2.5513,3.7317 0.66117,2.38334 -3.44735,-2.45923 -6.0574,-7.13965 -11.09079,-15.1189 -16.59938,-26.3144 -8.18861,-16.64233 -12.3401,-27.82448 -16.398242,-44.16911 -1.15911,-4.66844 -2.46864,-9.1855 -2.91008,-10.03793 -3.28224,-6.33819 -8.308193,-26.06595 -9.843079,-38.6359 -0.326362,-2.67275 -0.6774,-5.43502 -0.780085,-6.13837 -0.927733,-6.35482 -1.36896,-19.35973 -1.122525,-33.08589 0.336644,-18.7506 1.294338,-26.81686 4.544061,-38.27273 3.322758,-11.713325 6.396258,-17.424265 14.97716,-27.82941 4.04462,-4.904482 6.63117,-7.796251 17.86707,-19.975432 2.21804,-2.404238 7.1671,-7.932618 10.99792,-12.285279 9.37143,-10.64801 21.90814,-23.452058 26.91486,-27.488832 8.06136,-6.499631 17.38411,-12.146367 28.13422,-17.04075 6.75945,-3.0774792 9.7149,-4.0795438 11.96346,-4.0562707 l 2.35942,0.02444 -2.30189,0.7991351 c -4.66882,1.6208417 -20.34574,8.9927376 -24.80927,11.6662736 -13.74973,8.235734 -25.28416,18.987946 -44.74226,41.708069 -4.16479,4.86299 -8.06433,9.147095 -13.5028,14.834407 -15.93465,16.663779 -21.360152,24.636092 -25.238602,37.086019 -4.205399,13.49946 -5.413937,23.37605 -5.476866,44.75899 -0.04808,16.34058 0.601377,29.6766 1.258045,25.83233 0.830144,-4.85982 3.225164,-15.09915 4.406331,-18.8382 6.34059,-20.07152 23.822532,-52.51424 41.256052,-76.56237 2.54947,-3.51678 6.72125,-9.267194 9.27063,-12.778708 5.10934,-7.037566 20.95385,-23.594479 33.85477,-35.376932 18.3617,-16.769796 36.37061,-29.1593467 42.23392,-29.0555799 1.45671,0.02578 1.21456,0.1967091 -1.71918,1.2134849 -6.36486,2.205939 -15.02336,7.861867 -27.75537,18.130428 -16.81339,13.56023 -38.70738,35.594743 -47.1479,47.450478 -14.6869,20.629538 -16.92928,24.337229 -23.5289,38.904179 -10.66882,23.54865 -18.201272,47.25145 -21.264132,66.91319 -1.85812,11.92799 -1.84817,41.16402 0.0152,44.59652 0.18058,0.33265 0.27959,-5.65226 0.22002,-13.29981 -0.0597,-7.6683 0.0809,-13.44578 0.31357,-12.88158 0.23204,0.56268 0.55345,6.89288 0.71425,14.06711 0.41943,18.71401 2.04326,27.54377 8.263382,44.93297 4.90265,13.70602 13.54269,32.16742 18.95086,40.49276 1.91898,2.9541 3.65534,5.56266 3.85857,5.79683 0.20322,0.23415 -0.76164,-2.41302 -2.14415,-5.88261 -5.88608,-14.77193 -7.88226,-24.22107 -10.19388,-48.25393 -0.59534,-6.18953 -1.29035,-11.47237 -1.54446,-11.73964 -0.28246,-0.29709 -0.46202,-0.0603 -0.46202,0.60922 0,0.60235 -0.23019,1.23745 -0.51153,1.41133 -0.28134,0.17388 -0.53503,2.20162 -0.56375,4.50609 -0.0736,5.90439 -0.53249,3.77887 -2.73987,-12.69059 -2.52189,-18.81598 -2.69577,-20.4903 -3.37231,-32.47292 -0.87387,-15.47741 0.22329,-27.59558 3.82168,-42.21066 3.69711,-15.01604 11.45994,-33.91624 19.43451,-47.31733 6.61465,-11.11575 22.28931,-32.403097 23.19368,-31.498725 0.31614,0.316132 0.4823,0.08623 -4.83532,6.690151 -17.34551,21.541274 -30.24946,47.115364 -36.69627,72.727654 -5.05393,20.07851 -5.11416,40.8596 -0.21444,73.97965 l 1.12001,7.57079 1.89276,-5.52467 c 1.82241,-5.31934 9.64913,-24.1637 13.55479,-32.63582 1.0376,-2.25073 3.46743,-8.21914 5.39963,-13.26311 1.93219,-5.04397 3.77959,-9.41757 4.10534,-9.71909 0.80736,-0.74737 0.56068,0.0695 -2.61501,8.65932 -1.45619,3.93879 -3.30616,10.26899 -4.11104,14.06711 -0.80489,3.79813 -1.92685,9.09247 -2.49326,11.76522 -1.7098,8.06824 -2.64773,16.84535 -2.49333,23.33242 l 0.14472,6.08063 1.20161,-3.83648 c 1.23689,-3.9491 3.35887,-9.37417 7.50309,-19.18242 1.30762,-3.09477 3.75529,-9.54006 5.43928,-14.32288 9.82709,-27.91069 11.17682,-33.16509 11.17682,-43.51085 0,-7.20981 1.23419,-15.67165 3.01717,-20.68633 1.3138,-3.69505 1.34614,-1.73506 0.0547,3.31439 -2.10875,8.24518 -2.27934,13.699 -1.08139,34.57503 0.60428,10.53047 1.25927,20.87274 1.45553,22.98281 l 0.35685,3.83648 0.38324,-5.88261 c 0.75797,-11.63476 1.32898,-36.20544 1.0045,-43.2244 -1.0485,-22.68051 0.71031,-50.15918 3.51758,-54.95666 0.66411,-1.13494 0.6065,-0.10839 -0.21875,3.89797 -1.64454,7.98382 -2.08896,14.80072 -2.06144,31.6205 0.0396,24.17117 1.2355,31.93934 7.08782,46.03782 0.46715,1.12537 0.72286,1.47065 0.56827,0.7673 -5.23106,-23.79948 -4.03083,-63.47745 2.73166,-90.304895 2.77144,-10.994559 7.11992,-24.134325 9.99708,-30.208059 2.96892,-6.267455 10.92307,-16.120152 16.72129,-20.712423 4.04653,-3.204913 2.52873,-0.879231 -3.48952,5.346898 -9.79228,10.130514 -11.47819,12.624352 -15.0579,22.273919 -7.65799,20.643119 -12.24776,45.2717 -12.35339,66.28791 -0.0441,8.77513 0.0862,10.34013 1.34182,16.11324 2.73256,12.56407 6.06131,22.18733 11.5706,33.45015 2.21677,4.53182 5.04786,9.73588 6.29131,11.5646 1.24345,1.82873 3.35914,4.93628 4.70153,6.90568 2.39085,3.50757 3.93363,4.9899 3.1339,3.0111 -2.99539,-7.41155 -6.52083,-29.15447 -7.23135,-44.59881 -0.48747,-10.59601 1.56846,-43.95088 2.83394,-45.97693 0.45554,-0.72933 0.52194,-0.21207 0.30741,2.39468 -0.728,8.84587 -0.91161,22.19384 -0.35354,25.70356 0.3244,2.04022 1.05446,6.69162 1.62235,10.33646 1.26931,8.14665 6.80741,25.24041 11.02833,34.03976 4.32383,9.01391 11.02351,20.52135 12.20946,20.97109 0.5714,0.21669 1.10384,0.3367 1.18319,0.2667 0.0794,-0.07 -0.53288,-2.63281 -1.36053,-5.69511 -2.49439,-9.22917 -4.2597,-20.03744 -4.97939,-30.48687 -0.25031,-3.63432 -0.19276,-5.06236 0.19435,-4.82311 0.30247,0.18693 0.68863,1.89123 0.85815,3.78733 1.13743,12.72259 2.78832,17.78587 11.74439,36.01991 2.44266,4.97311 5.33622,11.70614 6.43015,14.96229 2.16288,6.43802 2.00182,8.2069 -0.20513,2.25286 -3.34976,-9.03715 -4.42474,-11.16699 -5.63623,-11.16699 -0.63512,0 -1.89143,-0.2568 -2.7918,-0.57067 -0.90037,-0.31387 -1.72169,-0.48602 -1.82517,-0.38255 -0.10346,0.10346 1.16588,3.97502 2.82075,8.60345 4.11305,11.50361 3.51077,11.49681 -1.50376,-0.0169 -3.16306,-7.26262 -3.77332,-7.80421 -10.53996,-9.35391 -7.2679,-1.66448 -12.00888,-2.56202 -12.21958,-2.31332 -0.092,0.10862 0.14584,0.94561 0.52863,1.85998 0.58364,1.39418 0.96557,1.66248 2.36652,1.66248 2.35848,0 13.44045,2.84868 14.80783,3.80644 1.22256,0.8563 0.39966,1.10734 -1.06331,0.32438 -0.72449,-0.38774 -4.60223,-1.30917 -13.98297,-3.32264 -0.56024,-0.12024 -0.94437,0.20149 -1.08601,0.9096 l -0.21916,1.09563 -0.36601,-1.09606 c -0.22672,-0.67892 -0.95714,-1.2143 -1.91925,-1.40671 -2.02665,-0.40534 -11.67355,-0.3918 -15.11198,0.0212 -2.33093,0.27997 -2.60321,0.42659 -2.04613,1.1018 0.52536,0.63675 0.50987,0.73499 -0.0849,0.53843 -0.40012,-0.13224 -1.24191,-1.60836 -1.87066,-3.28026 l -1.14316,-3.03984 -5.80231,0.10324 c -3.19128,0.0568 -6.98777,0.2431 -8.43664,0.41405 -2.51934,0.29726 -2.64884,0.38827 -2.96715,2.085 -0.18306,0.97579 -0.54385,1.64375 -0.80176,1.48435 -0.25792,-0.1594 -0.32746,-0.9972 -0.15454,-1.86178 0.30203,-1.5102 0.25616,-1.56034 -1.16771,-1.27649 -0.81514,0.16252 -2.40284,0.44014 -3.52821,0.61695 -1.12537,0.1768 -4.06028,0.77932 -6.52203,1.33893 -5.36634,1.2199 -5.28634,0.95717 -2.69767,8.85969 3.96907,12.11649 10.07563,24.17647 16.57752,32.73929 6.74443,8.88222 13.45692,16.20486 20.69757,22.5789 3.41947,3.0102 6.67758,5.93452 7.24027,6.49848 l 1.02306,1.0254 -1.5346,-0.93454 c -2.1127,-1.28663 -4.72422,-3.36145 -10.14842,-8.06285 -2.54434,-2.20529 -6.94144,-5.76288 -9.77134,-7.90574 -2.8299,-2.14287 -6.0391,-4.72338 -7.13156,-5.73446 l -1.98629,-1.83835 1.44631,2.55766 c 4.72235,8.35107 8.39831,12.93878 17.4252,21.74718 6.94422,6.77614 13.975,12.36615 20.14096,16.01361 3.48379,2.06082 2.00724,1.65437 -4.55895,-1.25495 -5.89349,-2.61127 -21.4817,-11.07698 -23.19162,-12.59501 -0.49234,-0.43709 -0.89517,-0.64086 -0.89517,-0.4528 0,0.18806 1.13709,2.882 2.52688,5.98653 4.33175,9.67637 7.00732,13.12439 21.23812,27.36962 14.68778,14.70268 26.88906,25.00326 40.99921,34.61241 10.91288,7.43177 14.69288,8.95924 19.87103,8.02972 8.08584,-1.45147 25.63809,-12.58428 44.26052,-28.07296 10.5805,-8.80004 26.70045,-25.45666 30.4695,-31.48391 0.9499,-1.51902 0.94946,-1.5262 -0.0434,-0.70741 -3.27968,2.70478 -31.95065,16.17066 -31.95065,15.00622 0,-0.0881 3.54499,-2.60453 7.87774,-5.59208 11.14192,-7.68264 19.72318,-15.56044 28.84059,-26.47634 5.71322,-6.84021 16.21332,-23.36738 11.62408,-18.29633 -1.57008,1.73491 -10.15061,7.04308 -18.30565,11.32441 -7.26617,3.81468 -21.29662,9.86598 -21.77227,9.39033 -0.11642,-0.11642 2.02541,-1.27831 4.75962,-2.58197 15.30032,-7.29511 30.76635,-21.65152 43.24468,-40.14206 4.74963,-7.03806 9.71874,-17.89283 9.71874,-21.23009 0,-1.47512 -2.98201,-7.26686 -8.41867,-16.35103 -4.76875,-7.96813 -13.54712,-24.80323 -16.27049,-31.20341 l -1.95897,-4.60379 0.32094,3.06919 c 0.90652,8.66923 5.39103,24.88442 8.21456,29.70241 1.15713,1.97452 1.48537,2.17819 4.4379,2.75381 4.97428,0.96979 5.6585,1.50298 1.52079,1.18513 l -3.71368,-0.28527 0.80234,1.92026 c 1.08425,2.59498 0.71669,2.7165 -0.79895,0.26414 -0.68433,-1.10725 -1.50886,-2.11473 -1.8323,-2.23885 -0.32346,-0.12411 -4.07029,-0.39142 -8.32632,-0.59401 -7.41169,-0.35279 -8.43401,-0.20195 -7.31292,1.07902 0.51243,0.58552 1.76887,4.85646 1.50602,5.1193 -0.10215,0.10215 -0.94339,-1.30579 -1.86943,-3.12876 l -1.68369,-3.31449 -3.40923,0.30282 c -4.93736,0.43855 -19.47926,2.25826 -21.52101,2.69305 -1.43108,0.30474 -1.86416,0.72173 -2.42147,2.33149 -0.67195,1.94088 -0.6666,1.95734 0.53864,1.65485 3.29889,-0.82798 12.39522,-1.43478 17.33582,-1.15646 8.24068,0.46423 8.01654,1.12457 -0.31576,0.93029 -6.04226,-0.14087 -12.26519,0.25659 -17.43509,1.11359 -0.60963,0.10106 -1.31178,1.02745 -1.88519,2.48723 l -0.91374,2.3262 1.88519,-0.87833 c 5.87439,-2.73692 23.6405,-4.11812 27.61002,-2.14649 1.04382,0.51846 2.95816,1.22967 4.25409,1.58048 2.20534,0.59699 2.5329,0.5488 5.11531,-0.75249 1.5175,-0.76467 3.44965,-1.86973 4.29368,-2.45567 1.19312,-0.82831 1.37501,-0.86657 0.81742,-0.17194 -0.39444,0.49137 -2.19153,1.7764 -3.99355,2.8556 -3.06891,1.83796 -3.22192,2.01663 -2.41661,2.82195 0.98726,0.98725 2.71629,0.77303 6.29718,-0.7802 3.61493,-1.568 3.67021,-1.06678 0.0857,0.77651 l -3.30215,1.69806 1.73387,0.89662 c 1.7309,0.89509 4.25626,0.88726 8.57903,-0.0266 1.09871,-0.23227 1.66248,-0.1563 1.66248,0.22403 0,0.31651 -0.40624,0.57547 -0.90276,0.57547 -1.84176,0 -4.77779,2.13735 -9.11161,6.63298 -2.44989,2.54139 -4.67361,4.62071 -4.94157,4.62071 -0.26797,0 0.11014,-1.01929 0.84022,-2.2651 1.75706,-2.99819 1.68514,-4.3505 -0.33504,-6.29975 -3.26918,-3.15443 -12.43446,-6.73959 -17.31278,-6.77223 -1.98093,-0.0132 -3.02059,1.46695 -3.02059,4.30049 0,4.53477 3.09933,7.38374 6.04875,5.56013 0.75265,-0.46537 1.65381,-1.1907 2.00259,-1.61187 1.06024,-1.28031 1.27714,-0.30709 0.63017,2.82761 -0.70555,3.41857 -1.91008,6.01229 -4.44974,9.58166 l -1.78416,2.50755 2.7014,-0.31995 c 1.48864,-0.1763 2.48932,-0.12506 2.22902,0.11414 -0.69638,0.63994 -9.17029,1.59389 -13.55105,1.52552 -2.09101,-0.0326 -3.39901,-0.16461 -2.90666,-0.29327 0.49235,-0.12867 0.89518,-0.29097 0.89518,-0.36068 0,-0.0697 -0.9783,-1.15036 -2.17401,-2.40144 -1.1957,-1.25108 -2.90333,-3.6517 -3.79471,-5.3347 -1.62489,-3.06793 -3.92002,-10.81196 -3.43633,-11.5946 0.14183,-0.22947 -0.15855,-0.41678 -0.6675,-0.41623 -0.54968,5.1e-4 -1.64439,1.0909 -2.69639,2.68553 -3.28931,4.98604 -6.76329,9.59023 -7.23607,9.59023 -0.25849,0 -0.10524,-0.86321 0.34054,-1.91824 1.89749,-4.49075 4.59258,-13.8357 4.12506,-14.30322 -0.0837,-0.0837 -0.89181,0.10569 -1.79582,0.42084 -0.90401,0.31513 -1.76838,0.44824 -1.92084,0.29578 -0.35651,-0.35651 2.58691,-1.88723 3.62897,-1.88723 0.64041,0 0.79269,-0.68787 0.79269,-3.58072 0,-3.59324 -0.34304,-4.1593 -1.91547,-3.16075 -0.35015,0.22236 -1.18672,2.24208 -1.85903,4.48828 -1.84845,6.17562 -5.20956,12.60448 -11.95677,22.86995 -2.52782,3.84592 -3.40452,4.34059 -1.44879,0.81747 1.74348,-3.14077 3.71767,-8.57725 4.38784,-12.08309 0.86832,-4.54235 1.3995,-13.44338 0.80226,-13.44338 -0.27959,0 -1.46288,0.36454 -2.62953,0.81008 -2.03371,0.77668 -2.1636,0.96127 -3.14977,4.4759 -1.68494,6.00494 -4.5923,15.33839 -5.20511,16.70986 -0.5648,1.26402 -0.56905,1.26105 -0.36787,-0.25576 0.11195,-0.84403 0.77879,-4.06668 1.48186,-7.16144 0.70307,-3.09477 1.4226,-6.89288 1.59896,-8.44027 0.48321,-4.23996 0.49552,-14.36015 0.0255,-20.97278 -0.34572,-4.86387 -0.48492,-5.52827 -0.80378,-3.83649 -0.2121,1.12537 -0.40361,3.42726 -0.42557,5.11531 -0.13831,10.63343 -4.84431,34.9039 -9.62093,49.61854 l -0.83026,2.55766 -0.59859,-5.88261 c -0.73282,-7.20175 -2.47113,-12.5582 -7.6363,-23.53044 -2.05285,-4.36081 -4.33828,-9.37494 -5.07874,-11.14253 -0.74047,-1.76757 -2.06566,-4.76003 -2.94488,-6.6499 -0.87921,-1.88986 -2.24803,-4.93235 -3.04181,-6.76108 -1.58622,-3.65436 -1.901,-3.32868 -0.6981,0.72234 2.42854,8.17867 7.51767,26.82529 8.45865,30.99261 0.60352,2.67275 1.22025,7.39162 1.37052,10.48639 0.27893,5.74428 -0.1354,6.82958 -0.94758,2.48214 -0.69527,-3.72159 -3.45856,-10.83021 -5.55409,-14.28799 -1.03655,-1.7104 -3.60639,-5.39342 -5.71075,-8.1845 -4.00957,-5.31802 -8.56323,-12.44072 -10.89348,-17.03925 -0.75691,-1.49369 -1.46904,-2.62297 -1.58249,-2.50952 -0.25941,0.25941 2.66914,12.17701 3.10019,12.61609 0.17462,0.17787 1.04908,0.6102 1.94325,0.96073 l 1.62577,0.63733 -1.92019,-0.15119 c -1.72022,-0.13544 -1.88617,-0.0441 -1.59359,0.87783 0.17964,0.56597 0.87108,1.45732 1.53654,1.98076 0.66547,0.52347 1.20994,1.18167 1.20994,1.46269 0,0.28102 -0.37873,0.1322 -0.84164,-0.3307 -0.65732,-0.65732 -0.92966,-0.69916 -1.24368,-0.19109 -0.62363,1.00906 -1.24122,-0.86226 -3.73495,-11.3171 -2.43964,-10.22807 -3.59488,-16.33192 -3.17124,-16.75556 0.14677,-0.14678 0.51807,0.39809 0.82511,1.2108 3.21681,8.51449 8.58744,17.84824 16.17013,28.1025 4.53814,6.13705 7.5939,11.33384 8.64894,14.70892 0.3755,1.20122 0.68603,1.67763 0.70518,1.08188 0.0424,-1.32105 -3.48262,-15.03613 -7.35195,-28.60431 -1.60465,-5.62684 -3.69676,-13.10799 -4.64915,-16.62476 -0.95239,-3.51678 -3.36056,-11.5734 -5.3515,-17.9036 -1.99093,-6.3302 -5.57468,-18.53022 -7.96388,-27.11116 -2.3892,-8.58094 -5.14385,-18.35547 -6.12142,-21.72118 -1.84676,-6.35821 -2.04687,-7.4361 -1.38051,-7.4361 0.21831,0 1.11846,2.58963 2.00035,5.75473 8.55033,30.68719 15.74234,54.72561 18.91489,63.22077 0.98146,2.62807 3.51582,8.4979 5.6319,13.04404 14.65525,31.48507 18.05107,40.06205 18.08626,45.68135 0.0205,3.27512 0.48643,2.34212 2.46364,-4.93338 3.08466,-11.3506 4.82299,-20.77507 6.32153,-34.27259 0.80112,-7.2158 0.75284,-34.96887 -0.0761,-43.73594 -1.86799,-19.75664 -8.84698,-48.00065 -17.24298,-69.782482 -1.23833,-3.21259 -2.16625,-6.089954 -2.06205,-6.394141 0.34553,-1.008627 3.90269,7.424815 7.01981,16.642783 5.96186,17.63044 11.28251,39.80669 12.99504,54.16277 0.41952,3.51677 1.0017,12.37905 1.29375,19.69395 0.29204,7.3149 0.75649,14.45076 1.0321,15.85747 0.98627,5.03397 1.52973,17.23769 1.03539,23.2507 -0.26491,3.22226 -0.40596,5.93432 -0.31348,6.02681 0.21019,0.21019 2.62808,-12.6041 3.35259,-17.76805 0.88219,-6.28769 2.06392,-20.41985 2.07454,-24.80927 0.014,-5.73468 0.82236,-3.95768 1.25211,2.75208 0.19136,2.98783 0.79213,10.1513 1.33503,15.91881 1.41995,15.08495 1.18868,24.21599 -0.80834,31.91471 -0.37269,1.43675 -0.61759,2.67231 -0.54422,2.74567 0.40721,0.40722 6.13088,-11.67962 7.46696,-15.7682 4.2123,-12.89012 4.68196,-32.28776 1.26557,-52.26982 -0.87519,-5.11888 -0.98026,-7.21385 -0.30143,-6.01027 1.06093,1.88104 2.84561,14.54067 3.90145,27.67493 2.24406,27.91535 2.19276,31.61786 -0.55569,40.10297 -0.63791,1.9694 -1.10977,3.63234 -1.04857,3.69544 0.40196,0.41437 6.0354,-10.74683 7.19153,-14.24809 0.7776,-2.35497 1.84865,-5.51023 2.3801,-7.01171 1.22289,-3.45492 4.11955,-17.88506 5.66435,-28.21769 1.04028,-6.95817 1.18538,-9.83856 1.18538,-23.53044 0,-8.58094 -0.18442,-16.63756 -0.40983,-17.9036 -0.2969,-1.66762 -0.25549,-2.14771 0.1503,-1.74237 0.63822,0.63754 1.97992,6.56883 5.34883,23.64596 2.69251,13.64838 5.43935,22.5383 9.72455,31.47262 1.5985,3.33275 2.9941,5.97182 3.10133,5.86459 0.10723,-0.10723 -0.4704,-2.31723 -1.28363,-4.91111 -2.23833,-7.13946 -4.49621,-19.074 -5.92363,-31.31078 -0.70559,-6.04886 -1.50273,-12.83944 -1.7714,-15.09017 -0.26866,-2.25074 -0.47564,-5.2432 -0.45994,-6.64991 0.0406,-3.63988 0.72112,-1.64762 1.49035,4.36319 0.34097,2.6644 1.19266,6.80098 1.89263,9.19239 2.76127,9.43369 9.47073,24.19657 15.5953,34.31445 2.0617,3.40597 4.29123,7.10542 4.95451,8.22098 0.66327,1.11556 1.28417,1.95007 1.37977,1.85447 0.0956,-0.0956 -0.39306,-2.12337 -1.08592,-4.50615 -1.85405,-6.37613 -3.59495,-15.05788 -4.81784,-24.02628 -0.59463,-4.36081 -1.5348,-10.34572 -2.08929,-13.29982 -1.5222,-8.1097 -1.56844,-8.46121 -1.04087,-7.91274 0.26217,0.27255 1.08444,3.60309 1.82727,7.40121 0.74283,3.79812 2.26824,9.66794 3.38982,13.04405 2.58403,7.7783 9.71004,22.24552 18.39316,37.34179 6.63549,11.53629 13.27424,24.59153 14.56672,28.64576 1.39956,4.39006 0.74773,-0.82938 -1.32775,-10.63178 -2.98215,-14.08458 -12.30112,-53.52325 -13.994,-59.22379 -0.84831,-2.85658 -0.69335,-4.15518 0.21175,-1.77457 0.6084,1.60022 3.26877,12.04293 7.43207,29.17303 7.99984,32.91572 10.41985,45.38079 8.98281,46.26894 -0.90798,0.56115 0.42502,16.12232 2.25878,26.36851 0.45317,2.53208 0.98457,7.13586 1.18088,10.23062 l 0.35693,5.62685 1.88463,-7.16144 c 4.97428,-18.90199 6.25935,-28.0324 5.90365,-41.94557 -0.21311,-8.336 -0.5449,-11.42976 -2.33154,-21.74008 -4.69043,-27.06757 -11.00485,-51.91392 -17.79746,-70.0305 -0.6755,-1.80161 -1.13652,-3.36731 -1.02451,-3.47932 0.3222,-0.3222 3.30317,7.1237 5.98104,14.93949 3.36364,9.81733 11.29789,41.90041 12.52384,50.6416 0.49081,3.49949 1.21655,4.69053 1.24677,2.04613 0.0248,-2.17596 1.0079,-4.57798 1.02296,-2.4996 0.004,0.59462 -0.21829,2.27344 -0.49466,3.73073 -0.41599,2.19356 -0.22878,4.34058 1.08775,12.47445 3.06027,18.90718 1.79199,32.30058 -5.52926,58.39067 -1.26776,4.51779 -2.39104,8.67453 -2.49619,9.23722 -0.10515,0.56269 -0.56231,3.20986 -1.01593,5.88261 -1.19178,7.02211 -3.65919,17.13532 -4.82201,19.76407 -0.55128,1.24627 -0.74753,2.10846 -0.43611,1.916 0.7649,-0.47274 9.60089,-18.79478 12.2307,-25.36123 6.21717,-15.52381 9.76113,-28.6642 11.21663,-41.58936 0.34849,-3.09476 0.85689,-5.85703 1.12977,-6.13837 0.32172,-0.33171 0.39327,0.20775 0.20356,1.53459 -0.16091,1.12537 -0.4329,3.65744 -0.60445,5.62684 -0.31104,3.57102 -1.48533,11.64127 -2.04689,14.06711 -0.16282,0.70336 -0.62858,6.45809 -1.03504,12.78829 -0.40646,6.3302 -1.06141,16.45851 -1.45544,22.50737 -0.39404,6.04886 -0.65508,11.06099 -0.5801,11.13806 0.43316,0.44523 5.72331,-16.55081 7.71763,-24.79497 3.68812,-15.24604 5.7177,-27.29377 7.3912,-43.87476 2.18369,-21.63603 0.849,-55.78966 -2.82421,-72.2694 -0.1411,-0.63302 -0.0642,-1.15094 0.17092,-1.15094 0.40793,0 1.57741,5.64869 2.64764,12.78828 2.88733,19.2618 3.02409,56.00414 0.26041,69.97109 -0.48973,2.47501 3.26087,-8.20724 4.36209,-12.42382 1.89216,-7.24517 2.33053,-17.62047 1.35079,-31.9707 -1.24861,-18.28823 -3.70942,-37.65875 -6.51224,-51.26155 -2.16628,-10.51353 -7.39132,-26.45105 -12.28097,-37.45965 -1.36739,-3.07855 -2.40698,-5.67654 -2.31021,-5.77331 0.35169,-0.35169 4.3488,7.9363 6.65346,13.79592 3.0128,7.66011 7.73708,23.41131 9.05495,30.19016 4.0353,20.75663 6.26994,42.48206 6.85936,66.6878 0.26596,10.92193 -0.35556,31.98931 -1.04686,35.48529 -0.20927,1.05824 -0.16088,1.12768 0.2805,0.40257 0.75339,-1.23767 4.3679,-15.61602 5.30918,-21.11958 0.43305,-2.53209 1.12736,-8.28682 1.54289,-12.78829 2.46269,-26.67865 1.79276,-40.25377 -2.86519,-58.05881 -5.44751,-20.82311 -18.18711,-50.16762 -28.53674,-65.731763 -1.30957,-1.969396 -3.72757,-5.652421 -5.37332,-8.184501 -4.83389,-7.437202 -9.48504,-13.386848 -15.79566,-20.205488 -3.25477,-3.516778 -5.92582,-6.58349 -5.93569,-6.814917 -0.072,-1.689766 11.42328,10.612959 17.15771,18.362884 8.02783,10.849361 18.42269,28.406075 24.43117,41.263745 2.47754,5.30174 10.66071,25.89029 12.25123,30.82365 2.06539,6.40628 5.04815,18.49514 6.05821,24.5535 l 0.68228,4.09226 0.39683,-4.60379 c 2.2283,-25.8516 1.30677,-39.98112 -3.55266,-54.47151 -2.47469,-7.37926 -9.53639,-24.902011 -12.1654,-30.186912 -1.18962,-2.391409 -2.82204,-5.844245 -3.62758,-7.672969 C 392.02558,75.708607 384.28213,63.336235 377.30129,54.767201 364.44436,38.985213 341.30945,20.031095 322.50535,9.873618 319.02542,7.9938482 308.39918,3.5744725 305.88058,2.9594954 c -0.56268,-0.1373913 0.25431,-0.2765091 1.81554,-0.3091481 2.36377,-0.049432 3.81843,0.3698929 8.69603,2.5066357 18.30447,8.018677 43.53593,27.062528 58.61308,44.23914 9.34739,10.648997 18.0102,24.321154 24.5411,38.732206 11.63121,25.665351 16.05901,39.122811 17.65143,53.648091 0.67843,6.18845 0.27721,30.10596 -0.56554,33.71217 -0.29586,1.26604 -0.75243,10.12831 -1.01458,19.69395 -0.67919,24.78231 -1.8299,35.40466 -5.44706,50.28241 -1.34527,5.53322 -2.90588,10.05421 -4.85671,14.06962 -1.28516,2.64524 -2.28512,3.20165 -1.79016,0.9961 0.9606,-4.28039 2.17386,-25.49891 1.33815,-23.40256 -0.22431,0.56268 -0.77472,2.25263 -1.22312,3.75544 -0.44841,1.50281 -1.63484,4.92051 -2.63652,7.5949 -1.00991,2.6964 -2.35747,7.85964 -3.02499,11.59049 -4.2571,23.79316 -9.31975,41.1467 -15.72943,53.91674 -0.67639,1.34758 -1.70776,1.57206 -1.17507,0.25577 0.81965,-2.02537 2.2405,-14.8941 2.78159,-25.19291 0.3178,-6.04886 0.70462,-12.83944 0.8596,-15.09018 l 0.28179,-4.09225 -2.39371,6.90568 c -5.59125,16.13029 -15.24313,35.85893 -21.38916,43.71988 -2.06949,2.64694 -3.41183,4.12363 -3.41183,3.7533 0,-0.16067 1.36832,-3.13898 3.04072,-6.61848 3.20399,-6.66603 4.90502,-12.04979 6.60504,-20.90498 1.51003,-7.86555 2.72226,-15.93671 2.4365,-16.22247 -0.59935,-0.59935 -1.31521,0.64388 -2.89759,5.03226 -3.35506,9.30452 -10.83906,23.56564 -17.41549,33.18605 -3.1718,4.63991 -9.16124,11.66836 -9.16124,10.75048 0,-0.30367 0.44254,-1.86845 0.98343,-3.47729 1.33362,-3.96679 2.71046,-10.95755 2.50736,-12.73085 -0.15213,-1.32827 -0.4251,-1.06596 -3.30098,3.17193 -3.76401,5.54664 -9.94799,13.51853 -14.21401,18.32357 -3.22987,3.63795 -15.18953,14.76811 -15.51694,14.4407 -0.10255,-0.10255 0.66851,-1.52297 1.71346,-3.15651 1.04496,-1.63353 2.95725,-5.16905 4.24953,-7.85672 l 2.34959,-4.88666 v -5.75464 c 0,-3.16504 -0.16454,-5.75467 -0.36565,-5.75473 -0.20111,-4e-5 -0.63782,0.51784 -0.97049,1.15085 -0.72403,1.37775 -4.97585,6.40925 -7.9993,9.46619 -2.31784,2.3435 -2.61875,2.09362 -1.69747,-1.40957 0.25896,-0.98469 0.61593,-3.12898 0.79326,-4.76509 0.30725,-2.83466 0.27551,-2.9496 -0.67428,-2.4413 -1.35613,0.72579 -3.67914,3.54598 -4.46476,5.42036 -0.35477,0.84642 -0.92963,6.08549 -1.27748,11.64239 -0.94196,15.04784 0.49264,32.53961 3.37612,41.16449 1.42305,4.25653 4.54565,10.28224 5.52251,10.65685 0.32786,0.12573 3.12819,-0.24525 6.22295,-0.8244 13.14347,-2.45964 14.77955,-2.66193 16.89577,-2.089 3.935,1.06533 13.73166,9.20322 23.25944,19.32114 7.83989,8.32549 15.16187,13.71789 28.38998,20.9083 10.42547,5.66698 24.81967,14.97612 50.89737,32.91683 9.01778,6.20398 10.08177,7.03379 9.61599,7.49956 -0.41593,0.41593 -3.23118,-1.11664 -7.37454,-4.01457 -26.05606,-18.22399 -41.23955,-28.08022 -54.92918,-35.65677 -14.13335,-7.82215 -17.77206,-10.58989 -29.84135,-22.6985 -8.73473,-8.76318 -16.25535,-15.11874 -19.23522,-16.25535 -0.72009,-0.27467 -2.5753,-0.40892 -4.12268,-0.29834 -2.84857,0.20355 -18.51028,2.49134 -18.86161,2.7552 -0.30424,0.22851 6.25771,7.88714 8.97167,10.4711 3.65048,3.47562 8.75362,7.33474 16.79561,12.7013 3.9388,2.62842 7.48723,5.08132 7.88541,5.45089 1.1648,1.08113 1.2834,0.92533 -23.71736,31.15819 -7.90307,9.55702 -14.23793,16.63486 -23.81172,26.60448 -3.79813,3.95516 -10.88181,11.47689 -15.74155,16.71496 -8.16542,8.80113 -10.34655,10.83541 -10.34655,9.64995 0,-0.46383 16.01029,-17.83544 29.96061,-32.50814 8.08673,-8.50546 13.79496,-15.00206 23.76149,-27.04316 3.22921,-3.90139 7.85491,-9.46126 10.27932,-12.35527 2.42441,-2.89401 5.46717,-6.63829 6.76168,-8.3206 l 2.35366,-3.05876 -4.18221,-2.66198 c -18.53261,-11.79599 -29.6276,-22.31157 -34.66985,-32.8593 -2.83938,-5.9396 -3.93284,-10.78469 -5.16528,-22.88724 -1.06236,-10.43229 -1.09938,-20.68724 -0.11346,-31.43477 l 0.32389,-3.53069 -4.22886,3.53069 c -15.95617,13.32187 -33.83519,25.40458 -42.00196,28.38508 -4.82262,1.76003 -9.08416,2.02815 -12.568,0.79068 -1.16712,-0.41455 -4.27467,-2.0744 -6.90567,-3.68852 -6.67392,-4.09449 -10.03961,-5.99175 -13.26126,-7.47544 -6.19402,-2.85261 -20.4426,-12.40279 -22.25177,-14.9144 -0.72497,-1.00642 -0.75752,-0.52838 -0.3779,5.54861 1.41269,22.61396 -0.58455,37.20369 -6.76167,49.39365 -4.48044,8.84174 -19.02642,20.38104 -39.23856,31.1279 -3.30257,1.75598 -6.13478,3.40321 -6.29378,3.66049 -0.66736,1.0798 3.95326,6.14197 23.69209,25.95606 20.34671,20.42428 24.30341,24.18941 38.48067,36.61756 7.31498,6.41249 21.11131,19.77976 20.76848,20.12259 -0.11189,0.11189 -3.35859,-2.74648 -7.21488,-6.35195 z M 176.99044,353.02029 c -1.41598,-2.73822 -4.88396,-12.94445 -7.48227,-22.0203 -2.43458,-8.50396 -4.03138,-12.64974 -7.96521,-20.68007 -0.9532,-1.94583 -1.66313,-3.74774 -1.57762,-4.00427 0.0855,-0.25654 2.09778,3.27553 4.4717,7.84904 2.37394,4.5735 5.90954,10.51882 7.85689,13.21184 4.27107,5.90649 11.07495,14.1471 11.07495,13.41358 0,-0.29045 -0.19575,-0.64907 -0.435,-0.79694 -0.23925,-0.14786 -1.21203,-2.0605 -2.16173,-4.25032 -0.94971,-2.18981 -3.31713,-6.6106 -5.26095,-9.82397 -4.66234,-7.70742 -10.52813,-20.77923 -10.73812,-23.92973 -0.0413,-0.61957 -0.89955,-2.0007 -1.90721,-3.06919 -1.00766,-1.06849 -3.51759,-4.12951 -5.57762,-6.80226 -2.06003,-2.67275 -3.9731,-5.15285 -4.25127,-5.51133 -0.27817,-0.35847 -0.39317,-0.76437 -0.25554,-0.90199 0.13761,-0.13762 2.29967,2.22508 4.80455,5.25045 2.50489,3.02536 6.51095,7.58786 8.90235,10.1389 19.85042,21.17543 19.95437,21.27249 23.46493,21.91236 1.65177,0.30106 1.54109,0.13557 -2.61154,-3.90543 -4.71161,-4.58494 -12.08854,-13.08043 -14.54663,-16.75234 -2.37986,-3.55504 -6.03737,-10.65097 -7.33003,-14.221 -1.12638,-3.11077 -1.43638,-3.45091 -8.8958,-9.76095 -12.24274,-10.35629 -21.4636,-20.54908 -27.18505,-30.05047 l -1.70893,-2.83798 -0.36095,1.92398 c -0.43502,2.3189 0.0528,12.17556 0.79319,16.02496 0.47698,2.48007 0.40091,3.67168 -0.1961,3.07164 -0.11663,-0.11722 -0.58945,-2.9754 -1.05073,-6.35151 -0.46126,-3.37611 -1.1715,-8.55871 -1.5783,-11.5169 -1.60936,-11.70321 -0.33029,-27.22308 3.56156,-43.21495 0.68442,-2.81233 1.18806,-5.16965 1.11921,-5.2385 -0.55067,-0.55067 -11.60234,25.81147 -13.31233,31.75459 -0.83855,2.91444 -0.82705,3.16514 0.46953,10.23063 2.89548,15.7785 11.62748,40.24734 18.55753,52.00196 1.24401,2.11007 5.4251,8.21008 9.2913,13.55558 3.8662,5.3455 9.73406,14.20779 13.03969,19.69395 5.89588,9.78509 11.19927,17.55856 16.31521,23.91409 2.73947,3.40325 3.94741,4.17016 2.66634,1.69285 z M 324.99848,333.8075 c 6.75079,-7.57243 10.97673,-13.01848 16.27418,-20.97278 7.90289,-11.86651 10.56685,-17.24423 13.17663,-26.59963 0.78483,-2.81342 1.65573,-5.34551 1.93532,-5.62685 0.33744,-0.33953 0.41216,-0.16755 0.22224,0.51153 -0.15736,0.56269 -0.8937,3.55515 -1.6363,6.64991 -0.99674,4.15389 -2.32803,7.65222 -5.0857,13.36404 -2.54678,5.27503 -3.84438,8.61206 -4.07762,10.48639 -0.67182,5.39884 -1.89653,11.39474 -2.64346,12.9418 -0.74633,1.54582 -0.74358,1.55351 0.16122,0.4514 7.27348,-8.85965 16.55504,-25.31521 22.1778,-39.31969 4.31132,-10.73811 4.65627,-12.87584 3.33822,-20.68708 l -0.64736,-3.83649 -0.39,2.55766 c -0.72985,4.78631 -2.9176,14.83289 -3.32074,15.24946 -0.22092,0.22826 0.0128,-1.77469 0.51962,-4.45103 2.25838,-11.92834 2.46703,-18.66446 0.96581,-31.18006 -1.03849,-8.6579 -1.72063,-11.09548 -4.70556,-16.8151 -0.90783,-1.73958 -1.18206,-1.98032 -1.33049,-1.16812 -0.31527,1.72514 -3.76562,9.49882 -6.06896,13.67343 -6.38624,11.57452 -21.38185,29.0268 -31.10503,36.20087 -1.7159,1.26605 -3.68325,2.71656 -4.3719,3.22339 -2.02319,1.48897 9.59378,-4.67959 14.46233,-7.67945 6.19281,-3.81582 12.39292,-8.43582 15.87264,-11.82747 1.61772,-1.57677 2.9413,-2.63602 2.9413,-2.35387 0,0.28214 -1.27642,1.77117 -2.83649,3.30894 -1.56007,1.53777 -3.90528,4.52237 -5.21156,6.63243 -5.44775,8.79989 -10.67711,16.19979 -14.9219,21.11554 -7.87725,9.12239 -18.99328,19.22405 -25.41649,23.09715 -1.66235,1.00237 -2.7766,1.82309 -2.47612,1.82382 0.96928,0.002 19.25194,-9.44956 24.15975,-12.49027 8.44227,-5.23054 20.14,-15.20393 24.00931,-20.47013 2.98414,-4.06148 3.13446,-4.15014 1.36515,-0.80515 -1.43112,2.70565 -7.6472,9.45167 -12.53709,13.60594 -2.29039,1.94584 -2.40923,2.1938 -4.26884,8.90723 -3.14938,11.36964 -6.37981,19.26853 -15.11252,36.95239 l -2.46009,4.98169 1.78518,-1.65674 c 0.98185,-0.9112 4.24773,-4.419 7.25752,-7.7951 z M 350.68,307.67678 c 0.0245,-0.59591 0.14575,-0.71712 0.30904,-0.30905 0.14777,0.36925 0.1296,0.81045 -0.0404,0.98043 -0.16998,0.16998 -0.29088,-0.13215 -0.26867,-0.67138 z m 0.51152,-2.55766 c 0.0245,-0.59591 0.14576,-0.71711 0.30905,-0.30905 0.14777,0.36926 0.1296,0.81046 -0.0404,0.98044 -0.16997,0.16997 -0.29087,-0.13215 -0.26866,-0.67139 z m 0.55192,-2.25927 c 0,-0.70335 0.1161,-0.99109 0.25801,-0.63941 0.1419,0.35168 0.1419,0.92715 0,1.27883 -0.14191,0.35167 -0.25801,0.0639 -0.25801,-0.63942 z m 0.53048,-2.81341 c 0.0104,-0.84404 0.12507,-1.12739 0.25477,-0.62968 0.1297,0.4977 0.12117,1.18827 -0.019,1.53459 -0.14013,0.34632 -0.24624,-0.0609 -0.23581,-0.90491 z m 0.4556,-2.3019 c -0.0154,-0.42201 0.19502,-1.11258 0.46775,-1.53459 0.60428,-0.93507 0.60428,-0.12742 0,1.27883 -0.28988,0.67457 -0.44921,0.7617 -0.46775,0.25576 z m 6.79527,-44.24746 c 0.0408,-10.52751 -0.081,-12.63266 -0.85514,-14.7747 -0.49652,-1.37387 -0.79511,-2.6056 -0.66354,-2.73717 0.13158,-0.13157 0.53019,0.76232 0.8858,1.98642 l 0.64658,2.22564 0.33752,-2.04612 c 0.45919,-2.78383 0.43911,14.42397 -0.0254,21.74008 -0.29916,4.71196 -0.36401,3.43951 -0.32585,-6.39415 z m 5.02588,-13.81134 c 0.0104,-0.84403 0.12507,-1.12739 0.25477,-0.62968 0.1297,0.4977 0.12117,1.18827 -0.019,1.53459 -0.14013,0.34633 -0.24624,-0.0609 -0.23581,-0.90491 z m -0.57086,-3.11181 c 0.0245,-0.59591 0.14575,-0.71712 0.30904,-0.30906 0.14777,0.36926 0.1296,0.81047 -0.0404,0.98044 -0.16998,0.16998 -0.29088,-0.13215 -0.26867,-0.67138 z m -47.54735,86.04378 c 2.49608,-3.07164 4.53833,-6.01147 4.53833,-6.53295 0,-0.52148 0.23019,-0.94816 0.51153,-0.94816 0.71283,0 0.60819,1.04634 -0.25576,2.55766 -0.77595,1.35738 -1.01162,9.17268 -0.32883,10.90475 0.68214,1.73043 8.64493,-16.96746 11.59959,-27.23766 0.74614,-2.59354 1.26529,-4.80685 1.15367,-4.91846 -0.59038,-0.59038 -5.7189,3.91049 -7.02634,6.16644 -0.81359,1.40383 -4.43928,6.00525 -8.05707,10.22539 -6.91595,8.0674 -8.33895,10.54694 -8.33895,14.53049 0,1.99247 0.0852,2.14883 0.83275,1.52842 0.45802,-0.38012 2.87501,-3.20429 5.37108,-6.27592 z m -135.44357,4.11545 c 0.71388,-1.21813 1.65651,-2.51236 2.09473,-2.87605 1.30717,-1.08486 0.96178,-1.80639 -2.65604,-5.54848 -1.89907,-1.96428 -5.82108,-6.22294 -8.71559,-9.46369 -6.1483,-6.88375 -7.47677,-8.11562 -5.90278,-5.47355 0.58662,0.98469 1.34789,2.71111 1.6917,3.83648 1.64057,5.36995 10.4626,21.74008 11.71596,21.74008 0.26074,0 1.05815,-0.99665 1.77202,-2.21479 z m 4.6563,-31.46351 c -0.26727,-0.23581 -1.86709,-1.4761 -3.55514,-2.75618 -3.98531,-3.02212 -15.45563,-14.46096 -19.19414,-19.14144 -1.60589,-2.01052 -4.14185,-5.80864 -5.63547,-8.44026 -1.49362,-2.63163 -4.48959,-7.77724 -6.65771,-11.43469 -4.43423,-7.48017 -6.80283,-12.01043 -6.4592,-12.35406 0.12724,-0.12723 1.1014,1.33434 2.1648,3.24795 4.5035,8.10405 9.91316,14.9136 14.75874,18.57795 1.43432,1.08467 3.41352,2.61389 4.39821,3.39826 1.42122,1.13209 1.25103,0.82966 -0.82542,-1.46675 -7.81058,-8.63797 -12.18615,-15.0229 -17.58184,-25.65584 -4.00225,-7.88697 -6.88593,-14.87005 -8.55872,-20.72572 l -0.93223,-3.26328 -4.17478,10.42472 c -4.38333,10.94548 -5.26126,13.60309 -5.26594,15.94068 -0.0106,5.28692 14.22717,23.21651 26.98039,33.97635 7.47766,6.30888 10.83539,8.66054 19.56611,13.70356 3.79811,2.19387 7.82643,4.52181 8.95179,5.17322 2.14858,1.24367 2.83461,1.51378 2.02055,0.79553 z m -58.7018,-50.58675 c -0.12969,-0.4977 -0.24434,-0.21434 -0.25476,0.62968 -0.0104,0.84403 0.0957,1.25124 0.2358,0.90492 0.14012,-0.34632 0.14865,-1.03689 0.019,-1.5346 z m 177.98436,-3.09322 c -0.13527,-0.21888 0.21603,-0.96699 0.78067,-1.66248 1.00852,-1.24226 1.02217,-1.24426 0.77517,-0.11358 -0.20521,0.93941 -0.0296,1.15095 0.95545,1.15095 2.01789,0 3.86323,-1.08093 3.54689,-2.07763 -0.19642,-0.61886 -0.0147,-0.86152 0.60629,-0.80973 0.89374,0.0745 2.19875,-2.41685 1.58662,-3.02898 -0.43486,-0.43487 -4.01988,1.33484 -3.71228,1.83253 0.13857,0.22422 -0.22048,0.28414 -0.7979,0.13313 -0.62411,-0.1632 -1.16225,-0.83654 -1.32703,-1.66042 -0.35544,-1.77719 -2.84709,-3.35146 -4.13685,-2.61372 -2.03248,1.16258 -2.32027,1.5344 -2.5083,3.24066 -0.1672,1.51722 0.10817,2.0957 1.8539,3.89456 1.85218,1.90854 3.01592,2.74791 2.37737,1.71471 z m 2.88084,0.0624 c -0.34632,-0.14012 -1.03688,-0.14865 -1.53459,-0.019 -0.4977,0.12969 -0.21434,0.24434 0.62968,0.25476 0.84403,0.0104 1.25124,-0.0957 0.90491,-0.23581 z m 5.48924,-2.22212 c 0,-0.28135 -0.10152,-0.51154 -0.22558,-0.51154 -0.12407,0 -0.36785,0.23019 -0.54172,0.51154 -0.17388,0.28134 -0.0724,0.51153 0.22557,0.51153 0.29795,0 0.54173,-0.23019 0.54173,-0.51153 z m -0.64287,-6.13837 c 0.13457,-0.49352 0.0584,-0.56652 -0.21337,-0.20459 -0.23242,0.3095 -0.76788,0.70826 -1.18989,0.88616 -0.53913,0.22726 -0.47568,0.2881 0.21338,0.20458 0.53937,-0.0654 1.07482,-0.46414 1.18988,-0.88615 z M 93.932418,207.3318 c -0.24454,-18.48731 0.79577,-28.82411 4.31162,-42.84116 4.612832,-18.39054 12.782212,-41.30263 19.487922,-54.65646 3.77891,-7.52536 3.29673,-7.45301 -1.18887,0.17837 -11.83226,20.13034 -21.003762,39.71158 -24.677992,52.68773 -4.244319,14.98951 -5.159556,23.96224 -3.443695,33.76106 1.447572,8.26674 5.142125,24.03866 5.631895,24.04238 0.0294,2.2e-4 -0.025,-5.92714 -0.12088,-13.17192 z m 92.120702,5.76694 c 4.14909,-0.007 7.54437,-0.17243 7.54509,-0.36774 5.1e-4,-0.19533 -0.51664,-0.95343 -1.14965,-1.6847 -1.13355,-1.30947 -1.28425,-1.3343 -9.97097,-1.64283 l -8.82003,-0.31324 0.80435,2.36061 c 0.77632,2.2784 0.86082,2.34843 2.42588,2.01058 0.89185,-0.19252 5.01624,-0.35572 9.16533,-0.36268 z m 27.41912,-0.78086 c -0.48085,-1.37937 -1.45761,-2.58169 -1.45761,-1.7942 0,0.46666 1.52785,3.32973 1.77688,3.32973 0.11881,0 -0.0248,-0.69099 -0.31927,-1.53553 z m -69.18383,-1.23172 c 2.785,-0.67796 6.29993,-1.39394 7.81097,-1.59109 l 2.74732,-0.35844 -0.32728,-2.37327 c -0.18,-1.3053 -0.6836,-7.96879 -1.11911,-14.80774 -0.43552,-6.83896 -0.95863,-13.85973 -1.16247,-15.60171 l -0.37062,-3.16724 -0.68801,2.81342 c -0.37842,1.54738 -1.71285,5.69079 -2.96541,9.20756 -5.60535,15.73798 -9.43192,27.11116 -9.12169,27.11116 0.073,0 2.41131,-0.55469 5.1963,-1.23265 z m 66.46326,0.23528 c -0.18828,-0.30465 -0.54985,-0.42565 -0.80349,-0.26889 -0.25364,0.15676 -1.10095,-0.0455 -1.88289,-0.44936 -0.78196,-0.40389 -3.49344,-0.98812 -6.02553,-1.29829 -6.85933,-0.84021 -7.83883,-0.61059 -2.04612,0.47966 2.81342,0.52951 6.38136,1.28341 7.92874,1.67534 2.99303,0.75807 3.37192,0.73954 2.82929,-0.13846 z m 7.01769,0.6586 c -0.35168,-0.1419 -0.92716,-0.1419 -1.27884,0 -0.35167,0.14191 -0.0639,0.25801 0.63942,0.25801 0.70336,0 0.99109,-0.1161 0.63942,-0.25801 z m 1.40671,-0.822 c 0,-0.0758 -1.11562,-2.43518 -2.47915,-5.2432 -1.36354,-2.80801 -3.12353,-6.54895 -3.91111,-8.31317 -0.78758,-1.76424 -1.53609,-3.10358 -1.66336,-2.97632 -0.25456,0.25457 2.88633,14.72436 3.28546,15.13581 0.42923,0.44248 4.76816,1.7136 4.76816,1.39688 z m 56.90785,-0.87836 c 0.77272,-0.006 0.89057,-0.51432 0.8615,-3.7156 -0.0185,-2.03972 -0.30813,-6.35577 -0.64357,-9.5912 l -0.60989,-5.88261 -0.91547,6.6499 c -1.90556,13.84189 -1.87049,13.15934 -0.65935,12.83418 0.58938,-0.15822 1.47444,-0.29083 1.96678,-0.29467 z m 11.85127,-0.82901 c 0.44502,-0.17078 0.80913,-0.76313 0.80913,-1.31634 0,-1.41257 -1.64095,-0.99376 -1.86457,0.47588 -0.19113,1.25605 -0.13794,1.29839 1.05544,0.84046 z m -121.25062,-2.00003 c 3.49171,-0.26179 4.91908,-0.56075 4.91908,-1.0303 0,-1.11363 -4.5312,-15.50383 -6.76001,-21.46845 -3.79231,-10.14875 -5.51555,-15.16843 -5.59194,-16.289 -0.16012,-2.34859 -0.8402,5.29738 -0.90285,10.15062 -0.0363,2.81342 -0.51695,10.52476 -1.06807,17.1363 -0.55111,6.61154 -1.00676,12.1551 -1.01254,12.31902 -0.006,0.16392 1.22873,0.12986 2.74337,-0.0757 1.51463,-0.20554 4.96746,-0.53967 7.67296,-0.74251 z m 41.84603,-0.11925 c -3.61368,-5.10361 -9.16979,-15.74147 -13.29176,-25.44869 -2.60196,-6.1276 -7.10466,-20.27971 -8.3003,-26.0881 -1.27351,-6.18661 -1.42367,-6.41135 -1.53807,-2.30189 -0.42249,15.17604 2.2889,37.04183 6.19217,49.93637 l 1.10269,3.64278 5.18375,0.3641 c 2.85106,0.20024 6.1045,0.54868 7.22988,0.77429 1.12537,0.22561 2.57972,0.43667 3.2319,0.46902 l 1.18578,0.0588 z m 100.67497,-0.94425 c 2.95409,-0.4178 7.44278,-0.96863 9.97486,-1.22406 3.88588,-0.392 3.24775,-0.43 -4.09224,-0.24361 -13.33483,0.33861 -16.49016,0.69094 -16.80005,1.87597 -0.29062,1.11137 0.33881,1.08783 10.91743,-0.4083 z m -120.211,0.40025 c 5.1e-4,-0.0882 -1.58626,-2.39008 -3.52642,-5.11531 -5.93799,-8.34072 -9.78671,-15.52671 -13.69329,-25.56689 -2.24959,-5.78159 -6.43922,-17.69956 -6.96013,-19.79906 -0.45292,-1.82545 -0.36937,5.46953 0.13181,11.50946 0.72576,8.74622 2.71897,19.69354 5.40955,29.71087 1.31619,4.90036 2.4584,9.02484 2.53823,9.16551 0.15458,0.2724 16.0983,0.3669 16.10025,0.0954 z m 99.52338,-1.48209 c -0.15684,-0.40872 -0.31397,-1.9328 -0.34919,-3.38682 l -0.064,-2.64372 -0.40958,2.3019 c -0.6828,3.83729 -0.59879,5.1267 0.31127,4.77749 0.43819,-0.16815 0.66837,-0.64014 0.51153,-1.04885 z m 51.89104,0.0824 c 0,-0.65988 -1.91406,-3.89534 -5.12944,-8.67063 -7.04715,-10.46603 -14.62897,-25.06932 -18.66556,-35.9516 -1.06829,-2.88002 -2.00153,-5.17666 -2.07386,-5.10365 -0.0723,0.073 0.3011,3.70067 0.82985,8.06148 1.40603,11.59607 3.28495,20.51666 6.9486,32.98981 1.82731,6.22119 2.48907,7.63938 3.32395,7.12339 0.25497,-0.15756 1.21266,-0.0393 2.1282,0.26288 0.91554,0.30216 3.73086,0.74779 6.25626,0.9903 6.37646,0.61232 6.382,0.61258 6.382,0.29802 z m -26.72752,-1.5683 c 5.1345,-0.19386 9.33545,-0.42431 9.33545,-0.5121 0,-0.0878 -1.226,-2.41219 -2.72445,-5.1653 -8.0567,-14.80269 -10.42109,-22.22193 -14.79957,-46.43969 -0.10173,-0.56268 -0.35564,2.65997 -0.56423,7.16144 -0.61661,13.30653 -3.46607,35.85173 -5.46307,43.2244 -0.72799,2.68763 -0.69639,2.72206 2.19489,2.39111 1.47704,-0.16907 6.88649,-0.46601 12.02098,-0.65986 z m -80.16451,258.91205 c -5.33119,-5.35347 -8.16463,-7.09248 -14.59666,-8.95866 -2.25074,-0.65303 -6.27905,-1.94115 -8.9518,-2.8625 -2.67275,-0.92135 -6.93124,-2.3113 -9.46333,-3.08877 -2.53208,-0.77748 -4.2585,-1.48838 -3.83648,-1.57978 0.42201,-0.0914 3.75976,0.76509 7.4172,1.90333 3.65745,1.13821 9.75746,2.9998 13.55558,4.13684 8.68817,2.60097 10.97565,3.85411 15.24659,8.35246 3.08441,3.24864 6.07473,6.93852 5.62304,6.93852 -0.095,0 -2.34241,-2.17865 -4.99414,-4.84144 z m 25.08964,2.58988 c 0.11723,-0.11299 2.86031,-1.98805 6.09575,-4.16682 9.98919,-6.72676 16.25054,-9.07103 31.45917,-11.77839 6.66821,-1.18705 6.12252,-0.75326 -1.02306,0.81326 -14.07617,3.08591 -19.71483,5.28878 -29.87702,11.67212 -3.20928,2.01589 -6.06746,3.66527 -6.35152,3.66527 -0.28404,0 -0.42054,-0.0925 -0.30332,-0.20544 z m 87.66831,-44.24521 c 0.47454,-1.49516 -1.06985,-8.03223 -2.74166,-11.60478 -1.73324,-3.70385 -5.01365,-8.67511 -7.67289,-11.62779 -1.01504,-1.12704 -1.50023,-1.93754 -1.07822,-1.8011 2.35851,0.76246 9.8932,12.52667 11.32109,17.67606 1.05075,3.78933 1.27401,8.3281 0.40966,8.3281 -0.30336,0 -0.40912,-0.43129 -0.23798,-0.97049 z M 240.3745,314.35304 c 0.67193,-0.50822 2.16033,-0.73624 4.60378,-0.70529 l 3.61083,0.0457 -2.55765,0.71169 c -1.40671,0.39143 -3.47841,0.70881 -4.60379,0.70529 -1.9094,-0.006 -1.97977,-0.0566 -1.05317,-0.75743 z m 13.07416,0.16772 c -1.68339,-0.4923 -1.72148,-0.54973 -0.63755,-0.96113 1.32716,-0.50374 5.56611,0.16255 6.4113,1.00773 0.73382,0.73383 -3.21408,0.70196 -5.77375,-0.0466 z m -10.9384,-22.91607 c -1.74573,-1.93232 -1.84988,-2.24464 -1.84988,-5.54756 0,-2.85032 0.1899,-3.67181 1.02306,-4.42582 0.87279,-0.78986 1.02952,-1.60926 1.06703,-5.57824 0.0574,-6.07223 0.71149,-4.04538 1.53699,4.76265 0.99931,10.66262 1.09556,12.83657 0.56834,12.83657 -0.27261,0 -1.32811,-0.92142 -2.34554,-2.0476 z m 132.24322,-4.6023 c 0,-0.42202 0.19783,-1.22768 0.43963,-1.79036 0.27711,-0.64486 0.43962,-0.73941 0.43962,-0.25577 0,0.42201 -0.19783,1.22768 -0.43962,1.79036 -0.2771,0.64486 -0.43963,0.73941 -0.43963,0.25577 z m 1.52619,-5.88262 c -0.0241,-0.28134 0.27649,-1.66247 0.66793,-3.06918 0.39143,-1.40671 0.71458,-2.09728 0.71812,-1.53459 0.007,1.08896 -1.31197,5.46944 -1.38605,4.60377 z m 1.55186,-6.90567 c 0,-0.70335 0.11611,-0.99109 0.25801,-0.63941 0.14191,0.35168 0.14191,0.92715 0,1.27883 -0.1419,0.35167 -0.25801,0.0639 -0.25801,-0.63942 z m 0.51153,-2.55766 c 0,-0.70335 0.11611,-0.99109 0.25802,-0.63941 0.1419,0.35168 0.1419,0.92715 0,1.27883 -0.14191,0.35168 -0.25802,0.0639 -0.25802,-0.63942 z m 0.98269,-5.4137 c 0.0245,-0.59591 0.14576,-0.71712 0.30904,-0.30905 0.14777,0.36926 0.1296,0.81046 -0.0404,0.98043 -0.16998,0.16999 -0.29087,-0.13215 -0.26867,-0.67138 z m 0.55945,-2.77079 c -0.0162,-0.70336 0.16111,-2.19959 0.39388,-3.32496 0.27149,-1.31253 0.43375,-1.58763 0.45257,-0.7673 0.0162,0.70336 -0.16111,2.19959 -0.39388,3.32496 -0.27149,1.31253 -0.43375,1.58763 -0.45257,0.7673 z m 1.06376,-8.44027 c 0.006,-1.12537 0.11042,-1.52552 0.23278,-0.88921 0.12235,0.63629 0.11771,1.55705 -0.0103,2.04611 -0.12802,0.48908 -0.22814,-0.0315 -0.22246,-1.1569 z m 0.5012,-4.85955 c 0,-0.9847 0.10527,-1.38753 0.23394,-0.89518 0.12866,0.49235 0.12866,1.29801 0,1.79036 -0.12867,0.49235 -0.23394,0.0895 -0.23394,-0.89518 z m -199.31653,-5.0448 c -0.2463,-0.39852 0.29494,-0.58205 1.71659,-0.58205 1.14197,0 2.07632,-0.13881 2.07632,-0.30848 0,-0.16967 -0.98969,-1.40926 -2.1993,-2.75463 -3.00232,-3.3393 -6.22377,-9.82316 -7.28504,-14.66266 -0.48417,-2.20786 -0.95034,-4.0953 -1.03593,-4.1943 -0.0856,-0.099 -1.31462,0.20496 -2.73119,0.67547 -2.7612,0.91712 -7.72133,4.94157 -7.72133,6.26476 0,0.43055 1.04748,2.25073 2.32773,4.04485 1.28027,1.79411 2.16893,3.26203 1.97482,3.26203 -0.19411,0 -1.87461,-1.22876 -3.73445,-2.73056 -1.85983,-1.5018 -3.88466,-3.04418 -4.49962,-3.42749 -0.61495,-0.38331 -1.22418,-1.1026 -1.35384,-1.59842 -0.24157,-0.92377 -3.4858,-2.64105 -6.22409,-3.29464 -2.47431,-0.59057 -0.16902,-0.83766 2.79277,-0.29933 2.38061,0.43268 2.66419,0.38054 3.18084,-0.58484 0.31198,-0.58293 0.36158,-1.13347 0.11024,-1.22343 -0.25136,-0.09 -2.06833,-1.09741 -4.03773,-2.23877 -3.87374,-2.24502 -3.48306,-2.28512 2.02423,-0.20775 l 3.55881,1.3424 2.5869,-1.30886 c 1.42279,-0.71986 2.90562,-1.30885 3.29516,-1.30885 0.38954,0 -0.41942,-0.5964 -1.7977,-1.32534 -2.5829,-1.36602 -4.44891,-2.78482 -4.1093,-3.12444 0.10633,-0.10632 1.37958,0.54413 2.82947,1.44544 l 2.63618,1.63873 4.71875,-0.91073 c 2.59532,-0.5009 6.56026,-1.07533 8.811,-1.27651 5.29804,-0.47358 16.57235,0.24869 20.19088,1.29348 3.33941,0.96419 10.14983,4.42255 9.2801,4.71247 -0.33212,0.11071 -0.99895,-0.0762 -1.48183,-0.41523 -0.4829,-0.33908 -0.18294,0.042 0.66656,0.84682 1.88168,1.78273 3.32246,3.60822 2.41982,3.06592 -1.16018,-0.697 -0.66708,0.28892 1.15095,2.30125 1.65958,1.83697 2.2323,3.00184 1.47588,3.00184 -0.17296,0 -2.13932,-1.58725 -4.36969,-3.52722 -4.06857,-3.53884 -6.60756,-4.82776 -11.17331,-5.67217 -3.14244,-0.58117 -3.79548,0.12432 -3.81855,4.12529 -0.0166,2.87577 0.10775,3.22212 1.65261,4.60345 2.67613,2.39285 4.72957,1.78038 5.95192,-1.77523 l 0.67952,-1.97659 0.33851,1.80444 c 0.69747,3.71785 -1.87143,10.42619 -5.19801,13.57389 -1.68194,1.5915 -1.71594,1.68601 -0.56948,1.58293 0.67059,-0.0603 2.3702,-0.0592 3.77691,0.002 2.29512,0.10048 2.42639,0.1666 1.27882,0.64406 -1.90159,0.79119 -19.70877,1.22983 -20.1619,0.49665 z m 9.04583,-1.42911 c -0.34632,-0.14012 -1.03689,-0.14865 -1.53459,-0.019 -0.49771,0.12969 -0.21435,0.24434 0.62968,0.25476 0.84402,0.0104 1.25124,-0.0957 0.90491,-0.2358 z m -3.84189,-1.22744 c -0.53867,-0.87983 -0.5094,-1.12785 0.17934,-1.51966 0.45269,-0.25752 1.42251,-1.25413 2.15516,-2.21469 1.14667,-1.50335 1.26482,-1.98107 0.84875,-3.4318 -0.64239,-2.23992 -1.30542,-2.55692 -3.51246,-1.67936 -4.19517,1.66808 -4.84122,2.58799 -3.50516,4.99108 0.32701,0.58816 0.55004,1.22889 0.49563,1.42382 -0.0841,0.30119 3.42283,3.48205 3.83895,3.48205 0.0789,0 -0.14614,-0.47314 -0.50021,-1.05144 z m 9.03233,-0.29974 c 0.26941,-0.70206 0.19456,-0.73371 -0.4568,-0.19313 -0.88763,0.73667 -0.98001,1.03278 -0.3222,1.03278 0.25124,0 0.60179,-0.37784 0.779,-0.83965 z m 171.78044,-0.69494 c 0,-0.9847 0.10528,-1.38753 0.23395,-0.89518 0.12866,0.49235 0.12866,1.29801 0,1.79036 -0.12867,0.49235 -0.23395,0.0895 -0.23395,-0.89518 z m -97.26923,-32.52487 c 0.0245,-0.59589 0.14576,-0.71711 0.30905,-0.30905 0.14777,0.36927 0.12959,0.81046 -0.0404,0.98044 -0.16998,0.16997 -0.29088,-0.13214 -0.26867,-0.67139 z M 401.8735,193.90369 c 0,-0.70336 0.11611,-0.9911 0.25802,-0.63941 0.1419,0.35167 0.1419,0.92714 0,1.27882 -0.14191,0.35168 -0.25802,0.0639 -0.25802,-0.63941 z m -130.0116,-1.27681 c 0.65972,-0.70225 1.31228,-1.16403 1.45011,-1.0262 0.33958,0.33958 -1.47481,2.30301 -2.1282,2.30301 -0.28678,0 0.0184,-0.57456 0.67809,-1.27681 z m 12.79017,-9.20959 c 0.66077,-0.70335 1.31649,-1.27882 1.45716,-1.27882 0.14067,0 -0.28486,0.57547 -0.94563,1.27882 -0.66077,0.70336 -1.31649,1.27883 -1.45716,1.27883 -0.14067,0 0.28486,-0.57547 0.94563,-1.27883 z M 161.96533,128.42768 c 0,-0.70336 0.11611,-0.99109 0.25801,-0.63942 0.1419,0.35168 0.1419,0.92716 0,1.27883 -0.1419,0.35168 -0.25801,0.0639 -0.25801,-0.63941 z M 382.77016,84.598091 c 0.36927,-0.147766 0.81047,-0.129596 0.98044,0.04036 0.16998,0.169981 -0.13214,0.290877 -0.67138,0.268666 -0.59591,-0.02455 -0.71711,-0.145756 -0.30906,-0.309046 z M 267.59339,24.791533 c -0.52,-0.713754 -0.83514,-1.40805 -0.70031,-1.542871 0.38328,-0.38328 1.90152,1.326972 1.90152,2.142001 0,0.968622 -0.0928,0.922359 -1.20121,-0.59913 z M 247.99972,11.395407 c -4.42499,-1.4376687 -4.57523,-1.508418 -4.13581,-1.9478304 0.16766,-0.1676651 1.47206,0.03729 2.89867,0.4555111 1.42661,0.4181973 2.59383,0.5899143 2.59383,0.3815923 0,-0.208314 -0.74811,-1.3678656 -1.66248,-2.5767778 -0.91436,-1.2089123 -1.97829,-2.6245855 -2.36428,-3.1459423 -0.38599,-0.5213489 -0.47165,-0.9479106 -0.19035,-0.9479106 0.38068,0 5.32487,5.3155054 6.62151,7.1188097 0.0843,0.117225 0.28254,0.08385 0.44056,-0.07419 0.15802,-0.158023 -0.4413,-1.1171443 -1.33182,-2.1313815 -1.47191,-1.6764147 -1.53838,-2.6877664 -0.0808,-1.230238 1.00726,1.00726 0.69956,0.013166 -0.66499,-2.1484345 -1.46658,-2.3232029 -1.62164,-2.9674369 -0.48777,-2.0264088 1.29586,1.0754708 4.32426,6.5917849 4.32426,7.8767678 0,1.772345 -1.4323,1.867598 -5.96048,0.396407 z"
       id="path1" /></g></svg>
